<?xml version="1.0" encoding="utf-8"?>
<!-- Generator: Adobe Illustrator 20.1.0, SVG Export Plug-In . SVG Version: 6.00 Build 0)  -->
<svg version="1.1" id="Layer_1" xmlns="http://www.w3.org/2000/svg" xmlns:xlink="http://www.w3.org/1999/xlink" x="0px" y="0px"
	 viewBox="0 0 1440 900" style="enable-background:new 0 0 1440 900;" xml:space="preserve">
<style type="text/css">
	.st0{opacity:5.000000e-02;}
	.st1{fill:#0000FF;}
	.st2{fill:none;stroke:#7800FF;stroke-width:67.8973;stroke-miterlimit:10;}
	.st3{opacity:5.000000e-02;fill:none;stroke:#0000FF;stroke-width:33.9486;stroke-miterlimit:10;enable-background:new    ;}
</style>
<g class="st0">
	<path class="st1" d="M1162.5,414.7c54.3,0,105.5,21.2,143.8,59.6c38.5,38.5,59.6,89.5,59.6,143.8c0,54.3-21.2,105.5-59.6,143.8
		c-38.5,38.5-89.5,59.6-143.8,59.6c-54.3,0-105.5-21.2-143.8-59.6c-38.5-38.5-59.6-89.5-59.6-143.8c0-54.3,21.2-105.5,59.6-143.8
		C1057.1,435.9,1108.2,414.7,1162.5,414.7 M1162.5,346.8c-149.8,0-271.4,121.5-271.4,271.4s121.5,271.4,271.4,271.4
		c149.8,0,271.4-121.5,271.4-271.4S1312.5,346.8,1162.5,346.8L1162.5,346.8z"/>
</g>
<g class="st0">
	<line class="st2" x1="331.6" y1="602.8" x2="840.1" y2="94.1"/>
</g>
<polygon class="st3" points="108.7,85.2 103.2,132.9 64.4,104.4 25.7,75.9 69.8,56.7 114,37.6 "/>
</svg>
