<?xml version="1.0" encoding="utf-8"?>
<!-- Generator: Adobe Illustrator 20.1.0, SVG Export Plug-In . SVG Version: 6.00 Build 0)  -->
<svg version="1.1" id="Layer_1" xmlns="http://www.w3.org/2000/svg" xmlns:xlink="http://www.w3.org/1999/xlink" x="0px" y="0px"
	 viewBox="0 0 1440 900" style="enable-background:new 0 0 1440 900;" xml:space="preserve">
<style type="text/css">
	.st0{opacity:5.000000e-02;}
	.st1{fill:#0000FF;}
</style>
<g class="st0">
	<path class="st1" d="M62.1,250.7h119.6c36.1,0,64.9,7.7,86.4,23.1c21.5,15.4,32.2,40.4,32.2,75c0,38.6-16,66.2-48.1,82.7
		c54.8,9.7,82.2,42,82.2,97.2c0,32.4-11.2,58.4-33.6,78c-22.4,19.6-53.2,29.4-92.5,29.4H62.1V250.7z M149.9,401.6h7
		c19.6,0,34.3-3.4,43.9-10.3c9.6-6.8,14.5-18.1,14.5-33.6c0-26.2-19.5-39.2-58.4-39.2h-7V401.6z M149.9,568.3h27.6
		c43,0,64.5-14.3,64.5-43c0-17.1-5.4-29.4-16.1-36.9c-10.7-7.5-26.9-11.2-48.3-11.2h-27.6V568.3z"/>
	<path class="st1" d="M461,250.7V559h132.7v77.1H373.2V250.7H461z"/>
	<path class="st1" d="M619.8,443.1c0-55.7,19-102.9,57-141.5c38-38.6,83.8-57.9,137.3-57.9c53.9,0,99.6,19.2,137.3,57.7
		c37.7,38.5,56.5,85.7,56.5,141.8c0,56.4-18.5,103.8-55.6,142.2c-37.1,38.5-83.1,57.7-138.3,57.7c-56.4,0-102.8-19.1-139.4-57.2
		C638.1,547.7,619.8,500.1,619.8,443.1z M714.6,443.1c0,20.2,3.1,38.7,9.3,55.3c6.2,16.7,17.1,30.8,32.7,42.3
		c15.6,11.5,34.7,17.3,57.5,17.3c32.7,0,57.4-11.2,74-33.6c16.7-22.4,25-49.5,25-81.3c0-31.4-8.5-58.5-25.5-81
		c-17-22.6-41.5-33.9-73.6-33.9c-31.8,0-56.3,11.3-73.6,33.9C723.3,384.7,714.6,411.7,714.6,443.1z"/>
	<path class="st1" d="M1395.2,420.3v83.6c-10,45.8-31.8,80.4-65.4,103.9c-33.6,23.5-71.2,35.3-112.6,35.3
		c-52,0-96.3-19.5-132.9-58.4c-36.6-38.9-54.9-85.9-54.9-141.1c0-56.1,17.9-103.4,53.7-142c35.8-38.6,80.5-57.9,134.1-57.9
		c62.6,0,112.1,22,148.5,65.9l-57.5,63.1c-20.6-33-49.2-49.5-85.9-49.5c-27.1,0-50.2,11.8-69.4,35.3c-19.2,23.5-28.7,51.9-28.7,85.2
		c0,32.7,9.6,60.6,28.7,83.8c19.2,23.2,42.3,34.8,69.4,34.8c22.4,0,42-6.8,58.6-20.3c16.7-13.5,25-31.5,25-53.9h-88.7v-67.7H1395.2z
		"/>
</g>
</svg>
