<?xml version="1.0" encoding="UTF-8"?>
<svg width="61px" height="77px" viewBox="0 0 61 77" version="1.1" xmlns="http://www.w3.org/2000/svg" xmlns:xlink="http://www.w3.org/1999/xlink">
    <!-- Generator: Sketch 41.2 (35397) - http://www.bohemiancoding.com/sketch -->
    <title>Imported Layers</title>
    <desc>Created with Sketch.</desc>
    <defs></defs>
    <g id="Page-1" stroke="none" stroke-width="1" fill="none" fill-rule="evenodd">
        <g id="Letter" transform="translate(-144.000000, -652.000000)" fill="#343434">
            <g id="Imported-Layers" transform="translate(144.000000, 652.000000)">
                <path d="M30.187438,21.6908013 L37.8852851,21.6908013 L37.1764752,24.4985865 L29.6336488,24.4985865 C28.0194174,32.5830929 25.7321694,41.8882468 22.772157,52.4138013 C19.8121446,62.9388622 16.9491777,69.6603205 14.1837603,72.5766955 C11.4178388,75.4923301 8.57629752,76.9511346 5.65787603,76.9511346 C3.90677273,76.9511346 2.54460744,76.5301026 1.57213636,75.6895192 C0.598909091,74.8484423 0.11292562,73.7632853 0.11292562,72.4342949 C0.11292562,71.3762853 0.446409091,70.4942404 1.1136281,69.7891474 C1.78059504,69.0835609 2.57283884,68.7313846 3.48985537,68.7313846 C4.2677314,68.7313846 4.92839669,68.9754647 5.47033884,69.4638718 C6.01228099,69.9520321 6.28325207,70.5075673 6.28325207,71.1319583 C6.28325207,71.6203654 6.1022686,72.1085256 5.74130992,72.5969327 C5.37984711,73.0850929 5.19936777,73.4241891 5.19936777,73.6142212 C5.19936777,73.8852019 5.31002479,74.0885609 5.53285124,74.2247917 C5.75492149,74.3602821 6.08865702,74.4281506 6.53355372,74.4281506 C7.95092149,74.4281506 9.27779752,73.6073109 10.514938,71.966125 C11.7513223,70.3246923 12.8704959,66.9408878 13.8711983,61.8137244 C16.2330579,49.5517212 19.1149298,37.1135064 22.516814,24.4985865 L14.8716488,24.4985865 L15.5381116,21.6908013 C18.3156281,21.5829519 20.1279835,21.3652788 20.9749256,21.0400032 C21.8218678,20.714234 22.4679132,20.2389071 22.9123058,19.6142692 C23.523314,18.7731923 24.3309339,16.9153205 25.3361736,14.0406538 C27.4207603,8.18100321 29.4009917,4.38357051 31.2771198,2.646875 C33.1532479,0.911166667 35.3973926,0.0426955128 38.0103099,0.0426955128 C39.9280289,0.0426955128 41.4288306,0.49038141 42.5129669,1.38550641 C43.5968512,2.28063141 44.1387934,3.43415064 44.1387934,4.84433654 C44.1387934,5.79425 43.8607645,6.56745833 43.3049587,7.16371474 C42.7486488,7.76071154 42.0816818,8.05908654 41.3038058,8.05908654 C40.4974463,8.05908654 39.8239256,7.81500641 39.2819835,7.32635256 C38.7397893,6.83819231 38.4688182,6.26858974 38.4688182,5.61729808 C38.4688182,5.18392628 38.6414835,4.68145192 38.9873182,4.11184936 C39.2532479,3.62344231 39.3860868,3.27151282 39.3860868,3.05383974 C39.3860868,2.70166346 39.2479545,2.43709936 38.9724463,2.26039423 C38.6961818,2.08418269 38.2689298,1.99607692 37.690438,1.99607692 C36.6975496,1.99607692 35.7601157,2.38255769 34.8781364,3.15576603 C33.996157,3.92897436 33.3070083,5.37321795 32.8106901,7.48923718 C31.9559339,11.1250192 31.0810124,15.8587917 30.187438,21.6908013" id="Fill-1"></path>
                <path d="M46.9354669,21.6908013 L54.633314,21.6908013 L53.9245041,24.4985865 L46.3816777,24.4985865 C44.7674463,32.5830929 42.4804504,41.8882468 39.520186,52.4138013 C36.5601736,62.9388622 33.6972066,69.6603205 30.9317893,72.5766955 C28.1658678,75.4923301 25.3245785,76.9511346 22.405905,76.9511346 C20.6550537,76.9511346 19.2928884,76.5301026 18.3201653,75.6895192 C17.3471901,74.8484423 16.8609545,73.7632853 16.8609545,72.4342949 C16.8609545,71.3762853 17.1946901,70.4942404 17.861657,69.7891474 C18.528876,69.0835609 19.3208678,68.7313846 20.2381364,68.7313846 C21.0157603,68.7313846 21.6764256,68.9754647 22.2183678,69.4638718 C22.7603099,69.9520321 23.031281,70.5075673 23.031281,71.1319583 C23.031281,71.6203654 22.8502975,72.1085256 22.4893388,72.5969327 C22.127876,73.0850929 21.9473967,73.4241891 21.9473967,73.6142212 C21.9473967,73.8852019 22.0583058,74.0885609 22.2808802,74.2247917 C22.5032025,74.3602821 22.836686,74.4281506 23.2815826,74.4281506 C24.6992025,74.4281506 26.0260785,73.6073109 27.2629669,71.966125 C28.4993512,70.3246923 29.6185248,66.9408878 30.6192273,61.8137244 C32.9810868,49.5517212 35.8632107,37.1135064 39.264843,24.4985865 L31.6196777,24.4985865 L32.2861405,21.6908013 C35.0639091,21.5829519 36.8760124,21.3652788 37.7229545,21.0400032 C38.5698967,20.714234 39.2159421,20.2389071 39.6603347,19.6142692 C40.271343,18.7731923 41.0789628,16.9153205 42.0842025,14.0406538 C44.1687893,8.18100321 46.1490207,4.38357051 48.0254008,2.646875 C49.9015289,0.911166667 52.1454215,0.0426955128 54.7583388,0.0426955128 C56.6760579,0.0426955128 58.1771116,0.49038141 59.2609959,1.38550641 C60.3451322,2.28063141 60.8870744,3.43415064 60.8870744,4.84433654 C60.8870744,5.79425 60.6087934,6.56745833 60.0529876,7.16371474 C59.4966777,7.76071154 58.8297107,8.05908654 58.0520868,8.05908654 C57.2454752,8.05908654 56.5719545,7.81500641 56.0300124,7.32635256 C55.4880702,6.83819231 55.2168471,6.26858974 55.2168471,5.61729808 C55.2168471,5.18392628 55.3897645,4.68145192 55.7355992,4.11184936 C56.0012769,3.62344231 56.1341157,3.27151282 56.1341157,3.05383974 C56.1341157,2.70166346 55.9959835,2.43709936 55.7204752,2.26039423 C55.4442107,2.08418269 55.0169587,1.99607692 54.4384669,1.99607692 C53.4458306,1.99607692 52.5083967,2.38255769 51.6264174,3.15576603 C50.744186,3.92897436 50.0550372,5.37321795 49.558719,7.48923718 C48.7039628,11.1250192 47.8290413,15.8587917 46.9354669,21.6908013" id="Fill-2"></path>
            </g>
        </g>
    </g>
</svg>