<?xml version="1.0" encoding="utf-8"?>
<!-- Generator: Adobe Illustrator 20.1.0, SVG Export Plug-In . SVG Version: 6.00 Build 0)  -->
<svg version="1.1" id="Layer_1" xmlns="http://www.w3.org/2000/svg" xmlns:xlink="http://www.w3.org/1999/xlink" x="0px" y="0px"
	 viewBox="0 0 1440 900" style="enable-background:new 0 0 1440 900;" xml:space="preserve">
<style type="text/css">
	.st0{opacity:5.000000e-02;}
	.st1{fill:#0000FF;}
</style>
<g class="st0">
	<path class="st1" d="M303.1,617.2L250.3,432l-52.8,185.2h-83.6l-94-330.1h83.6l56.4,226.4h2l60-226.4h56.8l60,226.4h2l56.4-226.4
		h83.2l-94,330.1H303.1z"/>
	<path class="st1" d="M470.8,452c0-47.7,16.3-88.1,48.8-121.2c32.5-33.1,71.7-49.6,117.6-49.6c46.1,0,85.3,16.5,117.6,49.4
		c32.3,32.9,48.4,73.4,48.4,121.4c0,48.3-15.9,88.9-47.6,121.8c-31.7,32.9-71.2,49.4-118.4,49.4c-48.3,0-88.1-16.3-119.4-49
		C486.4,541.6,470.8,500.8,470.8,452z M552,452c0,17.3,2.7,33.1,8,47.4c5.3,14.3,14.7,26.3,28,36.2c13.3,9.9,29.7,14.8,49.2,14.8
		c28,0,49.1-9.6,63.4-28.8c14.3-19.2,21.4-42.4,21.4-69.6c0-26.9-7.3-50.1-21.8-69.4c-14.5-19.3-35.5-29-63-29
		c-27.2,0-48.2,9.7-63,29C559.4,401.9,552,425.1,552,452z"/>
	<path class="st1" d="M836.4,287.2h118c31.7,0,57.6,8.5,77.6,25.4c20,16.9,30,41.1,30,72.6c0,24.3-6.1,44.6-18.2,61
		c-12.1,16.4-28.6,27.9-49.4,34.6l113.6,136.4h-95.6L911.6,486.8v130.4h-75.2V287.2z M911.6,433.6h8.8c6.9,0,12.8-0.1,17.6-0.4
		c4.8-0.3,10.3-1.2,16.4-2.8c6.1-1.6,11.1-3.9,14.8-6.8c3.7-2.9,6.9-7.2,9.6-12.8c2.7-5.6,4-12.4,4-20.4s-1.3-14.8-4-20.4
		c-2.7-5.6-5.9-9.9-9.6-12.8c-3.7-2.9-8.7-5.2-14.8-6.8c-6.1-1.6-11.6-2.5-16.4-2.8c-4.8-0.3-10.7-0.4-17.6-0.4h-8.8V433.6z"/>
	<path class="st1" d="M1423.3,617.2h-103.6l-121.6-140v140h-75.2V287.2h75.2V422l113.2-134.8h91.2l-132.8,156.4L1423.3,617.2z"/>
</g>
</svg>
